<svg xmlns="http://www.w3.org/2000/svg" width="800" height="450" viewBox="0 0 800 450">
  <!-- 背景 -->
  <rect width="800" height="450" fill="#6495ED" />
  
  <!-- 街道 -->
  <rect y="320" width="800" height="130" fill="#708090" />
  
  <!-- 马路 -->
  <rect y="380" width="800" height="60" fill="#555555" />
  <rect y="410" width="800" height="5" fill="#FFFFFF" stroke="none" stroke-dasharray="10,20" />
  
  <!-- 像素风建筑 - 从左到右 -->
  <g>
    <!-- 建筑1 -->
    <rect x="40" y="150" width="100" height="230" fill="#8A2BE2" />
    <g fill="#FFD700">
      <rect x="60" y="180" width="20" height="20" />
      <rect x="100" y="180" width="20" height="20" />
      <rect x="60" y="220" width="20" height="20" />
      <rect x="100" y="220" width="20" height="20" />
      <rect x="60" y="260" width="20" height="20" />
      <rect x="100" y="260" width="20" height="20" />
      <rect x="60" y="300" width="20" height="20" />
      <rect x="100" y="300" width="20" height="20" />
      <rect x="60" y="340" width="20" height="40" />
    </g>
  </g>
  
  <g>
    <!-- 建筑2 -->
    <rect x="160" y="200" width="120" height="180" fill="#FF69B4" />
    <g fill="#00CED1">
      <rect x="180" y="220" width="20" height="20" />
      <rect x="240" y="220" width="20" height="20" />
      <rect x="180" y="260" width="20" height="20" />
      <rect x="240" y="260" width="20" height="20" />
      <rect x="180" y="300" width="20" height="20" />
      <rect x="240" y="300" width="20" height="20" />
      <rect x="200" y="340" width="40" height="40" />
    </g>
  </g>
  
  <g>
    <!-- 建筑3 - 像素塔 -->
    <rect x="300" y="120" width="80" height="260" fill="#FF8C00" />
    <rect x="320" y="80" width="40" height="40" fill="#FF8C00" />
    <g fill="#1E90FF">
      <rect x="320" y="150" width="40" height="10" />
      <rect x="320" y="180" width="40" height="10" />
      <rect x="320" y="210" width="40" height="10" />
      <rect x="320" y="240" width="40" height="10" />
      <rect x="320" y="270" width="40" height="10" />
      <rect x="320" y="300" width="40" height="10" />
      <rect x="320" y="340" width="40" height="40" />
    </g>
  </g>
  
  <g>
    <!-- 建筑4 -->
    <rect x="400" y="180" width="140" height="200" fill="#32CD32" />
    <g fill="#FFD700">
      <rect x="420" y="200" width="20" height="20" />
      <rect x="460" y="200" width="20" height="20" />
      <rect x="500" y="200" width="20" height="20" />
      <rect x="420" y="240" width="20" height="20" />
      <rect x="460" y="240" width="20" height="20" />
      <rect x="500" y="240" width="20" height="20" />
      <rect x="420" y="280" width="20" height="20" />
      <rect x="460" y="280" width="20" height="20" />
      <rect x="500" y="280" width="20" height="20" />
      <rect x="420" y="320" width="20" height="20" />
      <rect x="460" y="320" width="20" height="20" />
      <rect x="500" y="320" width="20" height="20" />
      <rect x="460" y="340" width="20" height="40" />
    </g>
  </g>
  
  <g>
    <!-- 建筑5 -->
    <rect x="560" y="100" width="120" height="280" fill="#CD5C5C" />
    <rect x="580" y="60" width="80" height="40" fill="#CD5C5C" />
    <g fill="#FFFFFF">
      <rect x="580" y="120" width="20" height="20" />
      <rect x="620" y="120" width="20" height="20" />
      <rect x="580" y="160" width="20" height="20" />
      <rect x="620" y="160" width="20" height="20" />
      <rect x="580" y="200" width="20" height="20" />
      <rect x="620" y="200" width="20" height="20" />
      <rect x="580" y="240" width="20" height="20" />
      <rect x="620" y="240" width="20" height="20" />
      <rect x="580" y="280" width="20" height="20" />
      <rect x="620" y="280" width="20" height="20" />
      <rect x="590" y="340" width="60" height="40" />
    </g>
  </g>
  
  <!-- 路灯 -->
  <g transform="translate(100, 370)">
    <rect width="5" height="30" fill="#696969" />
    <rect x="-5" y="-5" width="15" height="5" fill="#FFD700" />
  </g>
  
  <g transform="translate(300, 370)">
    <rect width="5" height="30" fill="#696969" />
    <rect x="-5" y="-5" width="15" height="5" fill="#FFD700" />
  </g>
  
  <g transform="translate(500, 370)">
    <rect width="5" height="30" fill="#696969" />
    <rect x="-5" y="-5" width="15" height="5" fill="#FFD700" />
  </g>
  
  <g transform="translate(700, 370)">
    <rect width="5" height="30" fill="#696969" />
    <rect x="-5" y="-5" width="15" height="5" fill="#FFD700" />
  </g>
  
  <!-- 太阳 - 像素风格 -->
  <g transform="translate(680, 80)">
    <rect width="60" height="60" fill="#FFD700" />
    <rect x="20" y="-20" width="20" height="20" fill="#FFD700" />
    <rect x="20" y="60" width="20" height="20" fill="#FFD700" />
    <rect x="-20" y="20" width="20" height="20" fill="#FFD700" />
    <rect x="60" y="20" width="20" height="20" fill="#FFD700" />
  </g>
</svg> 