<svg xmlns="http://www.w3.org/2000/svg" width="800" height="450" viewBox="0 0 800 450">
  <!-- 背景 -->
  <rect width="800" height="450" fill="#87CEEB" />
  
  <!-- 草地 -->
  <rect y="300" width="800" height="150" fill="#7CFC00" />
  
  <!-- 太阳 -->
  <circle cx="700" cy="100" r="50" fill="#FFD700" />
  
  <!-- 房屋 -->
  <g transform="translate(100, 250)">
    <!-- 房子1 -->
    <rect width="120" height="100" fill="#8B4513" />
    <polygon points="0,0 60,-50 120,0" fill="#A52A2A" />
    <rect x="40" y="30" width="40" height="70" fill="#1E90FF" />
  </g>
  
  <g transform="translate(300, 270)">
    <!-- 房子2 -->
    <rect width="100" height="80" fill="#CD853F" />
    <polygon points="0,0 50,-40 100,0" fill="#A52A2A" />
    <rect x="35" y="25" width="30" height="55" fill="#1E90FF" />
  </g>
  
  <g transform="translate(500, 230)">
    <!-- 房子3 -->
    <rect width="140" height="120" fill="#8B4513" />
    <polygon points="0,0 70,-60 140,0" fill="#A52A2A" />
    <rect x="50" y="40" width="40" height="80" fill="#1E90FF" />
  </g>
  
  <!-- 树木 -->
  <g transform="translate(230, 280)">
    <rect x="10" y="0" width="10" height="40" fill="#8B4513" />
    <circle cx="15" cy="0" r="20" fill="#006400" />
  </g>
  
  <g transform="translate(430, 260)">
    <rect x="12" y="0" width="10" height="50" fill="#8B4513" />
    <circle cx="17" cy="-5" r="25" fill="#006400" />
  </g>
  
  <g transform="translate(650, 270)">
    <rect x="10" y="0" width="10" height="40" fill="#8B4513" />
    <circle cx="15" cy="-5" r="20" fill="#006400" />
  </g>
  
  <g transform="translate(50, 270)">
    <rect x="10" y="0" width="10" height="40" fill="#8B4513" />
    <circle cx="15" cy="-5" r="20" fill="#006400" />
  </g>
  
  <!-- 云朵 -->
  <g fill="white">
    <circle cx="150" cy="80" r="25" />
    <circle cx="175" cy="80" r="20" />
    <circle cx="130" cy="80" r="20" />
    
    <circle cx="400" cy="60" r="25" />
    <circle cx="425" cy="60" r="20" />
    <circle cx="380" cy="60" r="20" />
    
    <circle cx="600" cy="120" r="25" />
    <circle cx="625" cy="120" r="20" />
    <circle cx="580" cy="120" r="20" />
  </g>
</svg> 